<?xml version="1.0" encoding="UTF-8" standalone="no"?>
<!DOCTYPE svg PUBLIC "-//W3C//DTD SVG 1.1//EN"
 "http://www.w3.org/Graphics/SVG/1.1/DTD/svg11.dtd">
<!-- Generated by graphviz version 16.1.0 (20260904.0139)
 -->
<!-- Title: ProofTrace Pages: 1 -->
<svg width="781pt" height="331pt"
 viewBox="0.00 0.00 781.00 331.00" xmlns="http://www.w3.org/2000/svg" xmlns:xlink="http://www.w3.org/1999/xlink">
<g id="graph0" class="graph" transform="scale(1 1) rotate(0) translate(4 326.75)">
<title>ProofTrace</title>
<text xml:space="preserve" text-anchor="middle" x="386.29" y="-307.35" font-family="Helvetica,sans-Serif" font-size="12.00" fill="#e5e7eb">ProofTrace — diff graph (before reachability)</text>
<!-- route:healthz -->
<g id="node1" class="node">
<title>route:healthz</title>
<path fill="#1f2937" stroke="#4b5563" d="M104.79,-36C104.79,-36 49.79,-36 49.79,-36 43.79,-36 37.79,-30 37.79,-24 37.79,-24 37.79,-12 37.79,-12 37.79,-6 43.79,0 49.79,0 49.79,0 104.79,0 104.79,0 110.79,0 116.79,-6 116.79,-12 116.79,-12 116.79,-24 116.79,-24 116.79,-30 110.79,-36 104.79,-36"/>
<text xml:space="preserve" text-anchor="middle" x="77.29" y="-13.55" font-family="Helvetica,sans-Serif" font-size="11.00" fill="#f9fafb">GET /healthz</text>
</g>
<!-- route:get_invoice -->
<g id="node2" class="node">
<title>route:get_invoice</title>
<path fill="#1f2937" stroke="#4b5563" d="M382.46,-90C382.46,-90 248.71,-90 248.71,-90 242.71,-90 236.71,-84 236.71,-78 236.71,-78 236.71,-66 236.71,-66 236.71,-60 242.71,-54 248.71,-54 248.71,-54 382.46,-54 382.46,-54 388.46,-54 394.46,-60 394.46,-66 394.46,-66 394.46,-78 394.46,-78 394.46,-84 388.46,-90 382.46,-90"/>
<text xml:space="preserve" text-anchor="middle" x="315.58" y="-67.55" font-family="Helvetica,sans-Serif" font-size="11.00" fill="#f9fafb">GET /api/invoices/{invoice_id}</text>
</g>
<!-- source:get_invoice:invoice_id -->
<g id="node4" class="node">
<title>source:get_invoice:invoice_id</title>
<polygon fill="#b45309" stroke="#4b5563" points="593.08,-84 476.58,-84 476.58,-60 593.08,-60 605.08,-72 593.08,-84"/>
<text xml:space="preserve" text-anchor="middle" x="540.83" y="-67.55" font-family="Helvetica,sans-Serif" font-size="11.00" fill="#f9fafb">path param `invoice_id`</text>
</g>
<!-- route:get_invoice&#45;&gt;source:get_invoice:invoice_id -->
<g id="edge2" class="edge">
<title>route:get_invoice&#45;&gt;source:get_invoice:invoice_id</title>
<path fill="none" stroke="#6b7280" d="M394.67,-72C417.47,-72 442.33,-72 464.94,-72"/>
<polygon fill="#6b7280" stroke="#6b7280" points="464.66,-75.5 474.66,-72 464.66,-68.5 464.66,-75.5"/>
</g>
<!-- auth:get_invoice -->
<g id="node3" class="node">
<title>auth:get_invoice</title>
<path fill="#14532d" stroke="#4b5563" d="M154.58,-69.51C154.58,-69.51 154.58,-74.49 154.58,-74.49 154.58,-76.97 152.16,-80.02 149.74,-80.58 149.74,-80.58 114.15,-88.87 114.15,-88.87 111.73,-89.44 106.82,-90 104.34,-90 104.34,-90 50.25,-90 50.25,-90 47.76,-90 42.86,-89.44 40.44,-88.87 40.44,-88.87 4.84,-80.58 4.84,-80.58 2.42,-80.02 0,-76.97 0,-74.49 0,-74.49 0,-69.51 0,-69.51 0,-67.03 2.42,-63.98 4.84,-63.42 4.84,-63.42 40.44,-55.13 40.44,-55.13 42.86,-54.56 47.76,-54 50.25,-54 50.25,-54 104.34,-54 104.34,-54 106.82,-54 111.73,-54.56 114.15,-55.13 114.15,-55.13 149.74,-63.42 149.74,-63.42 152.16,-63.98 154.58,-67.03 154.58,-69.51"/>
<text xml:space="preserve" text-anchor="middle" x="77.29" y="-67.55" font-family="Helvetica,sans-Serif" font-size="11.00" fill="#f9fafb">authenticate (identity)</text>
</g>
<!-- auth:get_invoice&#45;&gt;route:get_invoice -->
<g id="edge1" class="edge">
<title>auth:get_invoice&#45;&gt;route:get_invoice</title>
<path fill="none" stroke="#22c55e" stroke-dasharray="5,2" d="M155.01,-72C177.26,-72 201.75,-72 224.73,-72"/>
<polygon fill="#22c55e" stroke="#22c55e" points="224.71,-75.5 234.71,-72 224.71,-68.5 224.71,-75.5"/>
<text xml:space="preserve" text-anchor="middle" x="186.83" y="-73.2" font-family="Helvetica,sans-Serif" font-size="9.00" fill="#9ca3af">guards</text>
</g>
<!-- sink:get_invoice:91 -->
<g id="node5" class="node">
<title>sink:get_invoice:91</title>
<path fill="#7c2d12" stroke="#4b5563" d="M772.58,-86.73C772.58,-88.53 750.01,-90 722.21,-90 694.41,-90 671.83,-88.53 671.83,-86.73 671.83,-86.73 671.83,-57.27 671.83,-57.27 671.83,-55.47 694.41,-54 722.21,-54 750.01,-54 772.58,-55.47 772.58,-57.27 772.58,-57.27 772.58,-86.73 772.58,-86.73"/>
<path fill="none" stroke="#4b5563" d="M772.58,-86.73C772.58,-84.92 750.01,-83.45 722.21,-83.45 694.41,-83.45 671.83,-84.92 671.83,-86.73"/>
<text xml:space="preserve" text-anchor="middle" x="722.21" y="-67.55" font-family="Helvetica,sans-Serif" font-size="11.00" fill="#f9fafb">db.execute (read)</text>
</g>
<!-- source:get_invoice:invoice_id&#45;&gt;sink:get_invoice:91 -->
<g id="edge3" class="edge">
<title>source:get_invoice:invoice_id&#45;&gt;sink:get_invoice:91</title>
<path fill="none" stroke="#6b7280" d="M605.58,-72C623.34,-72 642.59,-72 660.18,-72"/>
<polygon fill="#6b7280" stroke="#6b7280" points="659.97,-75.5 669.97,-72 659.97,-68.5 659.97,-75.5"/>
<text xml:space="preserve" text-anchor="middle" x="638.46" y="-73.2" font-family="Helvetica,sans-Serif" font-size="9.00" fill="#9ca3af">flows to</text>
</g>
<!-- route:get_invoice_secure -->
<g id="node6" class="node">
<title>route:get_invoice_secure</title>
<path fill="#1f2937" stroke="#4b5563" d="M400.08,-182C400.08,-182 231.08,-182 231.08,-182 225.08,-182 219.08,-176 219.08,-170 219.08,-170 219.08,-158 219.08,-158 219.08,-152 225.08,-146 231.08,-146 231.08,-146 400.08,-146 400.08,-146 406.08,-146 412.08,-152 412.08,-158 412.08,-158 412.08,-170 412.08,-170 412.08,-176 406.08,-182 400.08,-182"/>
<text xml:space="preserve" text-anchor="middle" x="315.58" y="-159.55" font-family="Helvetica,sans-Serif" font-size="11.00" fill="#f9fafb">GET /api/invoices/{invoice_id}/secure</text>
</g>
<!-- source:get_invoice_secure:invoice_id -->
<g id="node8" class="node">
<title>source:get_invoice_secure:invoice_id</title>
<polygon fill="#b45309" stroke="#4b5563" points="593.08,-176 476.58,-176 476.58,-152 593.08,-152 605.08,-164 593.08,-176"/>
<text xml:space="preserve" text-anchor="middle" x="540.83" y="-159.55" font-family="Helvetica,sans-Serif" font-size="11.00" fill="#f9fafb">path param `invoice_id`</text>
</g>
<!-- route:get_invoice_secure&#45;&gt;source:get_invoice_secure:invoice_id -->
<g id="edge5" class="edge">
<title>route:get_invoice_secure&#45;&gt;source:get_invoice_secure:invoice_id</title>
<path fill="none" stroke="#6b7280" d="M412.56,-164C430.03,-164 448.03,-164 464.79,-164"/>
<polygon fill="#6b7280" stroke="#6b7280" points="464.66,-167.5 474.66,-164 464.66,-160.5 464.66,-167.5"/>
</g>
<!-- auth:get_invoice_secure -->
<g id="node7" class="node">
<title>auth:get_invoice_secure</title>
<path fill="#14532d" stroke="#4b5563" d="M154.58,-139.51C154.58,-139.51 154.58,-144.49 154.58,-144.49 154.58,-146.97 152.16,-150.02 149.74,-150.58 149.74,-150.58 114.15,-158.87 114.15,-158.87 111.73,-159.44 106.82,-160 104.34,-160 104.34,-160 50.25,-160 50.25,-160 47.76,-160 42.86,-159.44 40.44,-158.87 40.44,-158.87 4.84,-150.58 4.84,-150.58 2.42,-150.02 0,-146.97 0,-144.49 0,-144.49 0,-139.51 0,-139.51 0,-137.03 2.42,-133.98 4.84,-133.42 4.84,-133.42 40.44,-125.13 40.44,-125.13 42.86,-124.56 47.76,-124 50.25,-124 50.25,-124 104.34,-124 104.34,-124 106.82,-124 111.73,-124.56 114.15,-125.13 114.15,-125.13 149.74,-133.42 149.74,-133.42 152.16,-133.98 154.58,-137.03 154.58,-139.51"/>
<text xml:space="preserve" text-anchor="middle" x="77.29" y="-137.55" font-family="Helvetica,sans-Serif" font-size="11.00" fill="#f9fafb">authenticate (identity)</text>
</g>
<!-- auth:get_invoice_secure&#45;&gt;route:get_invoice_secure -->
<g id="edge4" class="edge">
<title>auth:get_invoice_secure&#45;&gt;route:get_invoice_secure</title>
<path fill="none" stroke="#22c55e" stroke-dasharray="5,2" d="M155.01,-149.14C171.78,-150.7 189.83,-152.38 207.54,-154.03"/>
<polygon fill="#22c55e" stroke="#22c55e" points="207.02,-157.5 217.3,-154.94 207.67,-150.53 207.02,-157.5"/>
<text xml:space="preserve" text-anchor="middle" x="186.83" y="-154.2" font-family="Helvetica,sans-Serif" font-size="9.00" fill="#9ca3af">guards</text>
</g>
<!-- sink:get_invoice_secure:108 -->
<g id="node9" class="node">
<title>sink:get_invoice_secure:108</title>
<path fill="#7c2d12" stroke="#4b5563" d="M772.58,-164.27C772.58,-166.63 750.01,-168.55 722.21,-168.55 694.41,-168.55 671.83,-166.63 671.83,-164.27 671.83,-164.27 671.83,-125.73 671.83,-125.73 671.83,-123.37 694.41,-121.45 722.21,-121.45 750.01,-121.45 772.58,-123.37 772.58,-125.73 772.58,-125.73 772.58,-164.27 772.58,-164.27"/>
<path fill="none" stroke="#4b5563" d="M772.58,-164.27C772.58,-161.9 750.01,-159.98 722.21,-159.98 694.41,-159.98 671.83,-161.9 671.83,-164.27"/>
<text xml:space="preserve" text-anchor="middle" x="722.21" y="-147.68" font-family="Helvetica,sans-Serif" font-size="11.00" fill="#f9fafb">db.execute (read)</text>
<text xml:space="preserve" text-anchor="middle" x="722.21" y="-135.68" font-family="Helvetica,sans-Serif" font-size="11.00" fill="#f9fafb">(owner&#45;filtered ✓)</text>
</g>
<!-- auth:get_invoice_secure&#45;&gt;sink:get_invoice_secure:108 -->
<g id="edge7" class="edge">
<title>auth:get_invoice_secure&#45;&gt;sink:get_invoice_secure:108</title>
<path fill="none" stroke="#22c55e" stroke-dasharray="5,2" d="M155,-138.78C175.79,-138.04 198.3,-137.37 219.08,-137 390.61,-133.96 433.63,-131.1 605.08,-137 622.98,-137.62 642.39,-138.76 660.14,-140"/>
<polygon fill="#22c55e" stroke="#22c55e" points="659.78,-143.48 670.01,-140.71 660.29,-136.5 659.78,-143.48"/>
<text xml:space="preserve" text-anchor="middle" x="444.33" y="-134.83" font-family="Helvetica,sans-Serif" font-size="9.00" fill="#9ca3af">guards</text>
</g>
<!-- source:get_invoice_secure:invoice_id&#45;&gt;sink:get_invoice_secure:108 -->
<g id="edge6" class="edge">
<title>source:get_invoice_secure:invoice_id&#45;&gt;sink:get_invoice_secure:108</title>
<path fill="none" stroke="#6b7280" d="M605.58,-157.25C623.34,-155.37 642.59,-153.33 660.18,-151.46"/>
<polygon fill="#6b7280" stroke="#6b7280" points="660.4,-154.96 669.98,-150.43 659.66,-148 660.4,-154.96"/>
<text xml:space="preserve" text-anchor="middle" x="638.46" y="-156.27" font-family="Helvetica,sans-Serif" font-size="9.00" fill="#9ca3af">flows to</text>
</g>
<!-- route:list_my_invoices -->
<g id="node10" class="node">
<title>route:list_my_invoices</title>
<path fill="#1f2937" stroke="#4b5563" d="M362.58,-302C362.58,-302 268.58,-302 268.58,-302 262.58,-302 256.58,-296 256.58,-290 256.58,-290 256.58,-278 256.58,-278 256.58,-272 262.58,-266 268.58,-266 268.58,-266 362.58,-266 362.58,-266 368.58,-266 374.58,-272 374.58,-278 374.58,-278 374.58,-290 374.58,-290 374.58,-296 368.58,-302 362.58,-302"/>
<text xml:space="preserve" text-anchor="middle" x="315.58" y="-279.55" font-family="Helvetica,sans-Serif" font-size="11.00" fill="#f9fafb">GET /api/me/invoices</text>
</g>
<!-- auth:list_my_invoices -->
<g id="node11" class="node">
<title>auth:list_my_invoices</title>
<path fill="#14532d" stroke="#4b5563" d="M154.58,-251.51C154.58,-251.51 154.58,-256.49 154.58,-256.49 154.58,-258.97 152.16,-262.02 149.74,-262.58 149.74,-262.58 114.15,-270.87 114.15,-270.87 111.73,-271.44 106.82,-272 104.34,-272 104.34,-272 50.25,-272 50.25,-272 47.76,-272 42.86,-271.44 40.44,-270.87 40.44,-270.87 4.84,-262.58 4.84,-262.58 2.42,-262.02 0,-258.97 0,-256.49 0,-256.49 0,-251.51 0,-251.51 0,-249.03 2.42,-245.98 4.84,-245.42 4.84,-245.42 40.44,-237.13 40.44,-237.13 42.86,-236.56 47.76,-236 50.25,-236 50.25,-236 104.34,-236 104.34,-236 106.82,-236 111.73,-236.56 114.15,-237.13 114.15,-237.13 149.74,-245.42 149.74,-245.42 152.16,-245.98 154.58,-249.03 154.58,-251.51"/>
<text xml:space="preserve" text-anchor="middle" x="77.29" y="-249.55" font-family="Helvetica,sans-Serif" font-size="11.00" fill="#f9fafb">authenticate (identity)</text>
</g>
<!-- auth:list_my_invoices&#45;&gt;route:list_my_invoices -->
<g id="edge8" class="edge">
<title>auth:list_my_invoices&#45;&gt;route:list_my_invoices</title>
<path fill="none" stroke="#22c55e" stroke-dasharray="5,2" d="M149.51,-263.04C179.75,-266.88 214.9,-271.34 244.96,-275.16"/>
<polygon fill="#22c55e" stroke="#22c55e" points="244.36,-278.61 254.72,-276.4 245.24,-271.67 244.36,-278.61"/>
<text xml:space="preserve" text-anchor="middle" x="186.83" y="-270.2" font-family="Helvetica,sans-Serif" font-size="9.00" fill="#9ca3af">guards</text>
</g>
<!-- sink:list_my_invoices:121 -->
<g id="node12" class="node">
<title>sink:list_my_invoices:121</title>
<path fill="#7c2d12" stroke="#4b5563" d="M365.96,-243.27C365.96,-245.63 343.38,-247.55 315.58,-247.55 287.79,-247.55 265.21,-245.63 265.21,-243.27 265.21,-243.27 265.21,-204.73 265.21,-204.73 265.21,-202.37 287.79,-200.45 315.58,-200.45 343.38,-200.45 365.96,-202.37 365.96,-204.73 365.96,-204.73 365.96,-243.27 365.96,-243.27"/>
<path fill="none" stroke="#4b5563" d="M365.96,-243.27C365.96,-240.9 343.38,-238.98 315.58,-238.98 287.79,-238.98 265.21,-240.9 265.21,-243.27"/>
<text xml:space="preserve" text-anchor="middle" x="315.58" y="-226.68" font-family="Helvetica,sans-Serif" font-size="11.00" fill="#f9fafb">db.execute (read)</text>
<text xml:space="preserve" text-anchor="middle" x="315.58" y="-214.68" font-family="Helvetica,sans-Serif" font-size="11.00" fill="#f9fafb">(owner&#45;filtered ✓)</text>
</g>
<!-- auth:list_my_invoices&#45;&gt;sink:list_my_invoices:121 -->
<g id="edge9" class="edge">
<title>auth:list_my_invoices&#45;&gt;sink:list_my_invoices:121</title>
<path fill="none" stroke="#22c55e" stroke-dasharray="5,2" d="M149.51,-244.96C182.67,-240.75 221.72,-235.79 253.51,-231.75"/>
<polygon fill="#22c55e" stroke="#22c55e" points="253.89,-235.23 263.37,-230.5 253.01,-228.29 253.89,-235.23"/>
<text xml:space="preserve" text-anchor="middle" x="186.83" y="-242.89" font-family="Helvetica,sans-Serif" font-size="9.00" fill="#9ca3af">guards</text>
</g>
</g>
</svg>
